<svg xmlns="http://www.w3.org/2000/svg" xmlns:xlink="http://www.w3.org/1999/xlink" width="500" zoomAndPan="magnify" viewBox="0 0 810 809.999993" height="500" preserveAspectRatio="xMidYMid meet" version="1.0"><defs><clipPath id="id1"><path d="M 92 49.582031 L 721 49.582031 L 721 756 L 92 756 Z M 92 49.582031 " clip-rule="nonzero"/></clipPath></defs><g clip-path="url(#id1)"><path fill="#ff008a" d="M 607.515625 200.390625 C 612.714844 191.15625 617.964844 181.96875 623.164062 172.734375 C 635.941406 175.273438 652.089844 178.925781 660.777344 166.097656 C 672.5 149.777344 690.585938 123.21875 671.453125 105.847656 C 648.882812 90.46875 625.050781 76.246094 599.820312 65.6875 C 575.261719 59.542969 563.761719 87.542969 556.175781 105.574219 C 549.378906 119.792969 560.328125 132.40625 569.121094 142.417969 C 564.800781 150.109375 560.496094 157.855469 556.175781 165.539062 C 522.71875 148 486.597656 136.105469 449.261719 130.414062 C 449.320312 121.011719 449.429688 111.65625 449.488281 102.253906 C 466.582031 100.203125 490.640625 106.683594 500.433594 88.199219 C 509.667969 71.269531 494.851562 55.117188 479.414062 49.808594 L 341.199219 49.808594 C 324.441406 51.132812 304.867188 63.859375 310.722656 83.105469 C 316.589844 106.730469 345.460938 100.8125 363.542969 102.246094 C 363.484375 111.648438 363.433594 121.109375 363.375 130.511719 C 328.535156 135.605469 294.957031 146.773438 263.09375 161.664062 C 259.445312 155.304688 255.796875 148.992188 252.144531 142.632812 C 259.613281 132.789062 272.386719 121.382812 265.921875 107.722656 C 258.179688 89.742188 248.277344 61.359375 223.71875 65.34375 C 203.691406 71.261719 186.65625 84.039062 168.347656 93.609375 C 155.847656 100.804688 139.089844 110.097656 140.972656 127.027344 C 145.003906 143.242188 153.414062 158.667969 164.863281 170.898438 C 174.824219 178.699219 187.542969 174 198.824219 173.164062 C 202.917969 180.742188 207.066406 188.328125 211.160156 195.953125 C 150.707031 244.417969 108.230469 315.398438 96.71875 392.246094 C 81.011719 484.914062 110.605469 584 174.597656 652.878906 C 226.761719 710.695312 301.207031 748.039062 378.96875 754.066406 C 448.878906 760.425781 520.84375 742.5625 579.246094 703.5 C 657.734375 651.996094 711.160156 563.859375 718.738281 470.09375 C 729.039062 368.90625 685.179688 265.449219 607.515625 200.390625 Z M 566.863281 122.550781 C 564.539062 105.789062 576.261719 91.402344 585.445312 78.621094 C 595.621094 73.753906 605.691406 81.054688 614.375 85.648438 C 631.515625 96.160156 650.160156 104.40625 665.976562 116.96875 C 672.167969 132.011719 658.675781 146.007812 651.757812 158.34375 C 646.175781 167.140625 635.105469 164.15625 628.03125 159.179688 C 607.574219 147.167969 585.445312 137.429688 566.863281 122.550781 Z M 580.640625 146.617188 C 591.589844 152.644531 602.433594 158.726562 613.214844 165.039062 C 608.183594 174.390625 603.089844 183.734375 598.113281 193.089844 C 587.605469 185.84375 577.097656 178.699219 566.585938 171.515625 C 571.289062 163.214844 575.988281 154.910156 580.640625 146.617188 Z M 334.449219 88.859375 C 321.839844 91.351562 319.289062 75.746094 324.609375 67.285156 C 351.328125 60.652344 379.417969 65.734375 406.746094 64.242188 C 432.191406 65.078125 457.964844 62.144531 483.242188 65.734375 C 495.960938 67.335938 492.535156 92.953125 478.433594 88.859375 C 430.472656 89.910156 382.402344 89.910156 334.449219 88.859375 Z M 437.214844 101.804688 C 437.046875 110.765625 436.9375 119.785156 436.714844 128.746094 C 416.53125 127.253906 396.277344 127.300781 376.09375 128.746094 C 375.925781 119.726562 375.820312 110.765625 375.710938 101.746094 C 396.179688 101.636719 416.695312 101.636719 437.214844 101.804688 Z M 179.023438 166.53125 C 165.914062 154.742188 155.464844 139.316406 152.03125 121.824219 C 170.171875 101.746094 197.5 92.667969 220.285156 78.777344 C 243.460938 70.152344 248.328125 103.011719 257.835938 117.398438 C 236.101562 139.972656 205.625 150.984375 179.023438 166.53125 Z M 207.617188 165.085938 C 218.566406 158.894531 229.519531 152.644531 240.527344 146.5 C 244.511719 153.742188 248.496094 160.996094 252.359375 168.296875 C 241.792969 174.933594 231.285156 181.636719 220.773438 188.378906 C 216.417969 180.585938 212.042969 172.839844 207.617188 165.085938 Z M 642.640625 629.207031 C 599.332031 684.472656 535.777344 723.308594 467.03125 737.3125 C 400.9375 750.257812 330.359375 741.953125 270.347656 710.921875 C 182.566406 667.433594 119.179688 578.425781 107.453125 481.105469 C 98.101562 412 113.597656 339.757812 151.148438 280.949219 C 197.550781 206.257812 278.253906 153.976562 365.535156 142.75 C 441.972656 131.738281 522.285156 152.210938 584.347656 198.015625 C 652.433594 247.253906 698.289062 326.25 706.195312 409.960938 C 714.929688 487.632812 691.585938 568.289062 642.640625 629.207031 Z M 642.640625 629.207031 " fill-opacity="1" fill-rule="nonzero"/></g><path fill="#ff008a" d="M 513.160156 219.636719 C 462.332031 194.855469 402.980469 188.984375 348.167969 202.207031 C 249.605469 225.003906 170.613281 314.25 161.65625 415.316406 C 151.921875 496.472656 186.71875 580.683594 250.09375 632.070312 C 293.679688 667.863281 349.707031 688.503906 406.296875 687.730469 C 486.609375 689.003906 565.585938 646.675781 610.113281 580.015625 C 644.074219 530.941406 658.34375 469.03125 650.550781 409.949219 C 641.09375 328.566406 586.890625 254.714844 513.160156 219.636719 Z M 513.160156 219.636719 " fill-opacity="1" fill-rule="nonzero"/></svg>